# xmcd
#
# Track frame offsets:
#	150
#	17249
#	31262
#	45876
#	61401
#	77660
#	90861
#	104909
#	121057
#	135608
#	157159
#	170514
#	185731
#	199886
#	217330
#
# Disc length: 3085 seconds
#
# Revision: 1
# Processed by: cddbd v1.5.2PL0 Copyright (c) Steve Scherf et al.
# Submitted via: audiograbber 1.83.01
#
DISCID=d10c0b0f
DTITLE=Various Artist - CD 2 - Schön ist es auf der Welt zu sein - 2009
DYEAR=2009
DGENRE=Schlager
TTITLE0=Muttis DJ - Noch in 100 000 Jahren
TTITLE1=Peter Wackel and Schnitte - Schön ist es auf der Welt zu sein
TTITLE2=Tim Toupet - Wir lassen uns das Feiern nicht verbieten
TTITLE3=Angela Dupree - Ich fang nie mehr was an einem Sonntag an
TTITLE4=Peter Rabbit - Haus am See
TTITLE5=Boy Heck - Die Sonne geht auf
TTITLE6=Costa Cordalis - Anita
TTITLE7=Philipp Engel - Nimm mich - lieb mich
TTITLE8=Paul Polo - Das rote Pferd
TTITLE9=Heri and die Frauenpower - Jungfrauenchor
TTITLE10=Chris Rainbow - Bohnen in den Ohren
TTITLE11=Peggy March - Pretty Flamingo Fly Fly Away
TTITLE12=Wellkamm - Ich bin ein Döner
TTITLE13=Die Alpenpiraten - Cowboy und Indianer
TTITLE14=Die Partygeier - Amigo Charly
EXTD=
EXTT0=
EXTT1=
EXTT2=
EXTT3=
EXTT4=
EXTT5=
EXTT6=
EXTT7=
EXTT8=
EXTT9=
EXTT10=
EXTT11=
EXTT12=
EXTT13=
EXTT14=
PLAYORDER=
